# xmcd
#
# Track frame offsets: 
#        150
#        18261
#        35951
#        56573
#        93376
#        118312
#        144083
#        162136
#        180174
#        197263
#        213439
#        228656
#        249829
#        265813
#        293171
#
# Disc length: 4330 seconds
#
# Revision: 2
# Processed by: cddbd v1.5.1PL0 Copyright (c) Steve Scherf et al.
# Submitted via: ExactAudioCopy v0.95a5
#
DISCID=c910e80f
DTITLE=Сергей Наговицин - Дело № 001
DYEAR=1900
DGENRE=Chanson
TTITLE0=Городские встречи
TTITLE1=Море чёрное
TTITLE2=Кабакам, кабацкий дым
TTITLE3=Приговор
TTITLE4=Белый снег
TTITLE5=Зона
TTITLE6=Свадьба
TTITLE7=Первомай
TTITLE8=Вечер для звёзд
TTITLE9=Санаторий
TTITLE10=Золотистые денёчки
TTITLE11=Говорила мне мать
TTITLE12=Дори-дори
TTITLE13=Разбитая судьба
TTITLE14=До свиданья, кореша
EXTD=
EXTT0=
EXTT1=
EXTT2=
EXTT3=
EXTT4=
EXTT5=
EXTT6=
EXTT7=
EXTT8=
EXTT9=
EXTT10=
EXTT11=
EXTT12=
EXTT13=
EXTT14=
PLAYORDER=
